<svg width="167" height="14" viewBox="0 0 167 14" xmlns="http://www.w3.org/2000/svg"><title>ab-logo</title><path d="M11.754 13L7.092.184h-2.43L0 13h3.294l.63-1.908h3.942L8.46 13h3.294zM7.038 8.464H4.806l1.152-3.42 1.08 3.42zM23.09 6.592c0-2.016.162-3.654-1.332-5.148-.882-.882-2.124-1.26-3.456-1.26H13.55V13h4.752c1.332 0 2.574-.378 3.456-1.26 1.494-1.494 1.332-3.132 1.332-5.148zm-3.15 0c0 2.178-.09 2.52-.342 2.88-.288.432-.72.72-1.512.72H16.7v-7.2h1.386c.792 0 1.224.288 1.512.72.252.36.342.72.342 2.88zM35.902 13L33.13 7.654c1.008-.504 2.088-1.602 2.088-3.348 0-2.106-1.53-4.122-4.374-4.122h-5.076V13h3.15V8.23h1.062L32.248 13h3.654zm-3.834-8.694c0 .666-.504 1.296-1.368 1.296h-1.782V3.01H30.7c.864 0 1.368.63 1.368 1.296zM41.154 13V.184h-3.15V13h3.15zm13.55 0L50.042.184h-2.43L42.95 13h3.294l.63-1.908h3.942L51.41 13h3.294zm-4.716-4.536h-2.232l1.152-3.42 1.08 3.42zM66.508 13V.184h-3.15v6.444L59.254.184H56.5V13h3.15V6.556L63.754 13h2.754zm17.164-3.78c0-1.8-1.062-2.466-1.584-2.79.396-.27 1.404-1.08 1.404-2.538 0-2.214-1.422-3.708-4.086-3.708h-5.31V13h5.58c2.286 0 3.996-1.332 3.996-3.78zm-3.33-5.166c0 .504-.27 1.044-1.134 1.044h-1.962V3.01h1.962c.864 0 1.134.54 1.134 1.044zm.18 4.986c0 .54-.288 1.134-1.152 1.134h-2.124v-2.25h2.124c.864 0 1.152.576 1.152 1.116zM96.484 13l-2.772-5.346C94.72 7.15 95.8 6.052 95.8 4.306 95.8 2.2 94.27.184 91.426.184H86.35V13h3.15V8.23h1.062L92.83 13h3.654zM92.65 4.306c0 .666-.504 1.296-1.368 1.296H89.5V3.01h1.782c.864 0 1.368.63 1.368 1.296zM107.298 13v-2.808h-5.562v-2.25h4.752V5.134h-4.752V2.992h5.562V.184h-8.712V13h8.712zm12.866 0l-2.772-5.346c1.008-.504 2.088-1.602 2.088-3.348 0-2.106-1.53-4.122-4.374-4.122h-5.076V13h3.15V8.23h1.062L116.51 13h3.654zm-3.834-8.694c0 .666-.504 1.296-1.368 1.296h-1.782V3.01h1.782c.864 0 1.368.63 1.368 1.296zM130.978 13v-2.808h-5.562v-2.25h4.752V5.134h-4.752V2.992h5.562V.184h-8.712V13h8.712zm11.426-10.008V.184h-9.45v2.808h3.15V13h3.15V2.992h3.15zm11.678 3.6c0-1.926.054-3.726-1.296-5.076-.936-.936-2.016-1.44-3.582-1.44-1.566 0-2.646.504-3.582 1.44-1.35 1.35-1.296 3.15-1.296 5.076 0 1.926-.054 3.726 1.296 5.076.936.936 2.016 1.44 3.582 1.44 1.566 0 2.646-.504 3.582-1.44 1.35-1.35 1.296-3.15 1.296-5.076zm-3.15 0c0 2.34-.18 2.754-.468 3.132-.234.306-.684.576-1.26.576s-1.026-.27-1.26-.576c-.288-.378-.468-.792-.468-3.132s.18-2.772.468-3.15c.234-.306.684-.558 1.26-.558s1.026.252 1.26.558c.288.378.468.81.468 3.15zM166.768 13V.184h-3.15v6.444L159.514.184h-2.754V13h3.15V6.556L164.014 13h2.754z" fill="#fff" fill-rule="evenodd"/></svg>