<svg width="60" height="64" viewBox="0 0 60 64" xmlns="http://www.w3.org/2000/svg"><title>ab-type-logo</title><g fill="none" fill-rule="evenodd"><path d="M27.897 1.177c1.161-.65 3.055-.645 4.206 0L56.5 14.823c1.161.65 2.103 2.26 2.103 3.595v27.164c0 1.335-.952 2.95-2.103 3.595L32.103 62.823c-1.161.65-3.055.645-4.206 0L3.5 49.177c-1.161-.65-2.103-2.26-2.103-3.595V18.418c0-1.335.952-2.95 2.103-3.595L27.897 1.177z" stroke="#EC6826" stroke-width=".806"/><path d="M25.323 40.495l-2.433.248v1.765h9.386v-1.765l-2.245-.248L22.734 20.8h-2.432l-7.577 19.695-2.058.248v1.765h6.922v-1.765l-2.338-.248 1.559-4.397h7.047l1.466 4.397zM20.458 26.25h.094l2.713 7.804h-5.8l2.993-7.804zm10.826-5.419v1.796l2.432.186v17.682l-2.432.217v1.796h7.515c5.644 0 9.791-1.207 9.791-6.131 0-3.004-2.245-4.831-5.8-5.327v-.062c3.056-.526 4.709-2.167 4.709-4.985 0-3.964-3.337-5.172-8.513-5.172h-7.702zm6.642 11.458h1.31c3.336 0 4.864 1.239 4.864 4.026 0 3.004-1.497 4.211-5.083 4.211h-1.091V32.29zm0-9.476h.81c3.212 0 4.522 1.053 4.522 3.592 0 2.509-1.279 3.964-4.678 3.964h-.654v-7.556z" fill="#EC6826"/></g></svg>